<svg fill="none" xmlns="http://www.w3.org/2000/svg" viewBox="0 0 32 32"><g clip-path="url(#a)"><path d="M16 31.016c8.206 0 15-6.794 15-15 0-8.192-6.809-15-15.015-15C7.795 1.016 1 7.824 1 16.016c0 8.206 6.809 15 15 15Z" fill="#000"/><path d="M12.765 12.854a2.655 2.655 0 0 1-2.647-2.647c0-1.442 1.191-2.633 2.647-2.633 1.427 0 2.633 1.191 2.633 2.633 0 1.44-1.206 2.647-2.633 2.647Zm6.47 0c-1.426 0-2.632-1.206-2.632-2.647 0-1.442 1.206-2.633 2.633-2.633 1.456 0 2.647 1.191 2.647 2.633a2.664 2.664 0 0 1-2.647 2.647ZM9.53 18.663c-1.456 0-2.647-1.221-2.647-2.648 0-1.426 1.206-2.632 2.647-2.632 1.441 0 2.632 1.206 2.632 2.632 0 1.442-1.19 2.648-2.632 2.648Zm6.47 0c-1.426 0-2.632-1.206-2.632-2.648 0-1.426 1.206-2.632 2.632-2.632 1.442 0 2.648 1.206 2.648 2.632 0 1.442-1.206 2.648-2.648 2.648Zm6.471 0c-1.426 0-2.618-1.206-2.618-2.648 0-1.426 1.192-2.632 2.618-2.632 1.456 0 2.662 1.206 2.662 2.632 0 1.442-1.206 2.648-2.662 2.648Zm-9.706 5.794a2.652 2.652 0 0 1-2.647-2.633 2.664 2.664 0 0 1 2.647-2.647c1.427 0 2.633 1.206 2.633 2.647 0 1.441-1.206 2.633-2.633 2.633Zm6.47 0c-1.426 0-2.632-1.192-2.632-2.633 0-1.44 1.206-2.647 2.633-2.647a2.664 2.664 0 0 1 2.647 2.647c0 1.441-1.191 2.633-2.647 2.633Z" fill="#fff"/></g><defs><clipPath id="a"><path fill="#fff" transform="translate(1 1)" d="M0 0h30v30.015H0z"/></clipPath></defs></svg>